<svg xmlns="http://www.w3.org/2000/svg" viewBox="0 0 97.88 48.84"><defs><style>.cls-1{fill:#4978bc;}.cls-2{fill:#313283;}</style></defs><title>Zasób 3</title><g id="Warstwa_2" data-name="Warstwa 2"><g id="Layer_1" data-name="Layer 1"><polygon class="cls-1" points="65.92 10.63 34 10.63 34 17.64 42.05 17.64 42.05 38.07 50.55 38.07 50.55 17.64 60.27 17.64 65.92 10.63"/><path class="cls-1" d="M25,10.63V27L7.67,11.16h0A4.53,4.53,0,0,0,4.58,10,4.58,4.58,0,0,0,0,14.55V38.07H7.81V22l17.44,15.6h0a4.49,4.49,0,0,0,3,1.15,4.58,4.58,0,0,0,4.58-4.58V10.63Z"/><path class="cls-1" d="M48.3,41.06a27.46,27.46,0,0,1-14.59,4.65c-8.19,0-8.12-6.29-8.12-6.29S32,48,48.3,41.06Z"/><path class="cls-1" d="M61.3,30.5c3-3.35,5.29-6.56,5.29-6.56H61.3Z"/><path class="cls-1" d="M67.48,1.38c-8.88-5.61-24.2,7.68-24.2,7.68,7.79-4.84,16.2-7,21.18-4.77s5.45,6,5.57,6.34h-3l-5.66,7H70S76.37,7,67.48,1.38Z"/><path class="cls-2" d="M86.49,10.63h-9.4c.13-3.15-.7-5.87-2.93-7.75.68,1.48,2.82,12-12,28.13a62.33,62.33,0,0,1-9.8,8.48c-9.85,7-18.18,8.7-23,6.93a13.76,13.76,0,0,0,8.28,2.42c5.31,0,14.56-3.2,23.66-10.77h8.49V31h16.7c6.61,0,11.39-4.56,11.39-10.19S93.1,10.63,86.49,10.63ZM85.9,23.94H72.59a44.07,44.07,0,0,0,3-6.3H85.9a3.15,3.15,0,1,1,0,6.3Z"/></g></g></svg>